# xmcd CD database file
#
# Track frame offsets:
#	150
#	19349
#	32392
#	46130
#	64510
#	80172
#	99490
#	117790
#	134825
#	152530
#	171225
#	187317
#	203455
#	218254
#	234566
#	255553
#	276966
#	310316
#
# Disc length: 4337 seconds
#
# Revision: 0
# Processed by: cddbd v1.5.2PL0 Copyright (c) Steve Scherf et al.
# Submitted via: CDex 1.70beta2
#
DISCID=f510ef12
DTITLE=Kenny G - The Most Romantic Melodies of All Time CD1
DYEAR=2006
DGENRE=Jazz
TTITLE0=You're Beautiful
TTITLE1=The Way We Were
TTITLE2=Yesterday
TTITLE3=I'm In The Mood For Love
TTITLE4=If
TTITLE5=The Way You Look Tonight
TTITLE6=If I Ain't Got You
TTITLE7=Love Theme From "Romeo and Juliet"
TTITLE8=It Had To Be You
TTITLE9=The Shadow of Your Smile
TTITLE10=Fly Me To The Moon/You Make Me Feel So Young (Medley)
TTITLE11=As Time Goes By
TTITLE12=You Raise Me Up
TTITLE13=The Moon Represents My Heart
TTITLE14=Brazil
TTITLE15=The Moment
TTITLE16=Havana
TTITLE17=Loving You
EXTD=YEAR: 2006
EXTT0=
EXTT1=
EXTT2=
EXTT3=
EXTT4=
EXTT5=
EXTT6=
EXTT7=
EXTT8=
EXTT9=
EXTT10=
EXTT11=
EXTT12=
EXTT13=
EXTT14=
EXTT15=
EXTT16=
EXTT17=
PLAYORDER=
